<svg width="150" height="40" viewBox="0 0 150 40" fill="none" xmlns="http://www.w3.org/2000/svg">
<g clip-path="url(#clip0_874_35815)">
<path d="M62.0034 15.5692C61.5954 13.9791 60.567 12.8156 58.556 12.8156C55.5884 12.8156 54.3474 15.4328 54.3474 18.0886C54.3474 20.7445 55.5884 23.3631 58.556 23.3631C60.7106 23.3631 61.8913 21.7543 62.0838 19.7376H64.4495C64.2556 23.0528 61.91 25.3396 58.5603 25.3396C54.4106 25.3396 51.9285 22.043 51.9285 18.0872C51.9285 14.1314 54.4019 10.8291 58.5517 10.8291C61.673 10.8478 64.135 12.5743 64.4266 15.5606L62.0034 15.5692Z" fill="#4C4C4C"/>
<path d="M65.8816 19.982C65.8816 16.9182 67.7231 14.709 70.942 14.709C74.161 14.709 76.0024 16.9182 76.0024 19.982C76.0024 23.0458 74.161 25.2766 70.942 25.2766C67.7231 25.2766 65.8816 23.0659 65.8816 19.982ZM73.7918 19.982C73.7918 18.2583 72.9199 16.4542 70.942 16.4542C68.9641 16.4542 68.0922 18.2569 68.0922 19.982C68.0922 21.7071 68.9641 23.5313 70.942 23.5313C72.9199 23.5313 73.7918 21.7272 73.7918 19.982Z" fill="#4C4C4C"/>
<path d="M77.9028 11.1592H80.1134V13.2534H77.9028V11.1592ZM77.9028 14.98H80.1134V25.0046H77.9028V14.98Z" fill="#4C4C4C"/>
<path d="M82.5181 14.98H84.6123V16.4537L84.6511 16.4925C84.9687 15.9466 85.4245 15.4941 85.9728 15.1806C86.5211 14.8671 87.1423 14.7038 87.7738 14.7071C89.9457 14.7071 91.3217 15.8706 91.3217 18.1185V25.0032H89.1111V18.7017C89.0723 17.1317 88.4518 16.4537 87.1533 16.4537C85.6796 16.4537 84.7287 17.6158 84.7287 19.0895V25.0046H82.5181V14.98Z" fill="#4C4C4C"/>
<path d="M106.039 25.0049H104.488L104.12 23.376C102.827 24.8498 101.638 25.3338 99.9543 25.3338C95.8074 25.3367 93.3196 22.033 93.3196 18.0815C93.3196 14.1299 95.8074 10.8291 99.9514 10.8291C102.968 10.8291 105.516 12.4379 105.884 15.5606H103.518C103.285 13.7378 101.697 12.807 99.9514 12.807C96.9838 12.807 95.7428 15.4241 95.7428 18.08C95.7428 20.7359 96.9838 23.3545 99.9514 23.3545C102.432 23.3933 103.789 21.9008 103.83 19.5538H100.145V17.7137H106.035L106.039 25.0049Z" fill="#4C4C4C"/>
<path d="M110.092 20.5637C110.092 22.1352 110.946 23.5313 112.787 23.5313C114.067 23.5313 114.843 22.9683 115.229 21.8637H117.325C116.841 24.0542 114.979 25.2766 112.787 25.2766C109.647 25.2766 107.882 23.0846 107.882 20.0021C107.882 17.1509 109.749 14.709 112.73 14.709C115.89 14.709 117.829 17.5588 117.461 20.5637H110.092ZM115.251 19.1101C115.173 17.7139 114.222 16.4542 112.73 16.4542C111.197 16.4542 110.151 17.6163 110.092 19.1101H115.251Z" fill="#4C4C4C"/>
<path d="M125.916 18.3344C125.74 17.1121 124.848 16.4542 123.628 16.4542C122.478 16.4542 120.874 17.0546 120.874 20.0983C120.874 21.766 121.611 23.5313 123.53 23.5313C124.81 23.5313 125.702 22.6781 125.916 21.2432H128.126C127.718 23.8416 126.115 25.2766 123.53 25.2766C120.388 25.2766 118.663 23.0458 118.663 20.0983C118.663 17.0733 120.312 14.709 123.607 14.709C125.934 14.709 127.917 15.8725 128.126 18.3344H125.916Z" fill="#4C4C4C"/>
<path d="M129.994 11.1592H132.204V19.0321L136.199 14.98H138.914L135.074 18.6629L139.281 25.0046H136.581L133.517 20.1367L132.199 21.4165V25.0075H129.994V11.1592Z" fill="#4C4C4C"/>
<path d="M139.878 19.982C139.878 16.9182 141.719 14.709 144.938 14.709C148.157 14.709 150 16.9182 150 19.982C150 23.0458 148.157 25.2766 144.938 25.2766C141.719 25.2766 139.878 23.0659 139.878 19.982ZM147.789 19.982C147.789 18.2583 146.916 16.4542 144.938 16.4542C142.96 16.4542 142.088 18.2569 142.088 19.982C142.088 21.7071 142.96 23.5313 144.938 23.5313C146.916 23.5313 147.789 21.7272 147.789 19.982Z" fill="#4C4C4C"/>
<path d="M39.6446 19.7348C39.6619 23.6553 38.5162 27.4929 36.3525 30.7622C34.1887 34.0316 31.1041 36.5859 27.4886 38.1021C23.8732 39.6184 19.8893 40.0284 16.0408 39.2805C12.1923 38.5325 8.652 36.6601 5.86765 33.9C3.08329 31.14 1.17993 27.6163 0.398246 23.7745C-0.383434 19.9327 -0.00831991 15.9453 1.47615 12.3167C2.96062 8.68812 5.48778 5.5812 8.73803 3.38887C11.9883 1.19654 15.8157 0.0172723 19.7361 0.00018846C24.9931 -0.0227192 30.0439 2.04356 33.7774 5.74449C37.5109 9.44543 39.6214 14.4779 39.6446 19.7348Z" fill="#8DC63F"/>
<path d="M38.1579 19.7418C38.1744 23.3677 37.1153 26.917 35.1145 29.9409C33.1137 32.9648 30.2611 35.3276 26.9175 36.7303C23.5739 38.133 19.8894 38.5127 16.33 37.8213C12.7706 37.13 9.49619 35.3987 6.92075 32.8464C4.34531 30.294 2.58458 27.0353 1.86121 23.4823C1.13784 19.9293 1.48432 16.2415 2.85684 12.8854C4.22936 9.5293 6.56627 6.65557 9.57205 4.62762C12.5778 2.59967 16.1175 1.5086 19.7433 1.49237C24.6051 1.47098 29.2764 3.38155 32.7297 6.80386C36.1829 10.2262 38.1355 14.88 38.1579 19.7418Z" fill="#F9E988"/>
<path d="M20.1599 2.68053C21.3253 2.47368 22.518 2.47368 23.6834 2.68053C24.86 2.86684 25.9974 3.24792 27.0488 3.8081C28.0945 4.38266 28.998 5.16262 29.8972 5.89375C30.7964 6.62487 31.6913 7.37324 32.5431 8.19198C33.4126 8.99797 34.1714 9.91569 34.7996 10.9211C35.4465 11.9186 35.9767 12.9871 36.3797 14.1056C37.1453 16.355 37.411 18.7782 37.0289 21.0894H36.9154C36.5319 18.7983 36.012 16.615 35.1918 14.538C34.8068 13.4921 34.3538 12.4724 33.8358 11.4856C33.2953 10.4987 32.6997 9.54293 32.0518 8.6229C31.3929 7.6928 30.5854 6.87752 29.6616 6.20976C28.7309 5.54614 27.6607 5.11666 26.6251 4.70872C25.5895 4.30079 24.5624 3.87848 23.4823 3.56822C22.4021 3.25796 21.3047 3.02527 20.1584 2.79975L20.1599 2.68053Z" fill="white"/>
<path d="M29.1216 13.2712C27.7915 12.8863 26.4126 12.3404 25.0164 11.7889C24.936 11.4384 24.6257 11.0017 23.998 10.4688C23.0859 9.67736 21.3723 9.69747 19.8913 10.048C18.2567 9.663 16.6422 9.52654 15.0923 9.90431C2.41615 13.3962 9.60388 21.9155 4.94995 30.4793C5.61213 31.8841 12.7496 40.0801 23.0773 37.881C23.0773 37.881 19.5452 29.3933 27.5157 25.3197C33.981 22.0031 38.6521 15.8668 29.1216 13.2712Z" fill="#8BC53F"/>
<path d="M30.6873 18.8452C30.6882 18.9972 30.6439 19.146 30.5602 19.2729C30.4765 19.3997 30.357 19.4989 30.2169 19.5578C30.0768 19.6168 29.9224 19.6329 29.7732 19.6041C29.6239 19.5752 29.4866 19.5028 29.3785 19.3959C29.2705 19.2891 29.1965 19.1526 29.166 19.0037C29.1355 18.8548 29.1499 18.7002 29.2072 18.5594C29.2646 18.4187 29.3624 18.2981 29.4883 18.213C29.6142 18.1278 29.7626 18.0819 29.9145 18.0811C30.1182 18.0803 30.3139 18.1603 30.4588 18.3035C30.6036 18.4467 30.6858 18.6415 30.6873 18.8452Z" fill="white"/>
<path d="M19.8914 10.0416C20.815 10.1077 24.1546 11.1907 25.0164 11.7825C24.2982 9.69974 21.8808 9.42251 19.8914 10.0416Z" fill="#009345"/>
<path d="M20.7702 15.3092C20.7705 16.0104 20.5628 16.696 20.1735 17.2791C19.7841 17.8623 19.2306 18.3169 18.5828 18.5854C17.9351 18.854 17.2222 18.9244 16.5345 18.7877C15.8467 18.6511 15.2149 18.3136 14.719 17.8179C14.2231 17.3222 13.8853 16.6905 13.7484 16.0028C13.6115 15.3151 13.6816 14.6022 13.9499 13.9544C14.2182 13.3065 14.6725 12.7528 15.2555 12.3632C15.8386 11.9736 16.524 11.7656 17.2252 11.7656C17.6907 11.7654 18.1516 11.857 18.5817 12.035C19.0118 12.213 19.4026 12.4739 19.7318 12.803C20.061 13.1321 20.3222 13.5228 20.5004 13.9528C20.6785 14.3828 20.7702 14.8437 20.7702 15.3092Z" fill="white"/>
<path d="M19.7189 15.3412C19.7189 15.8344 19.5726 16.3165 19.2986 16.7266C19.0246 17.1367 18.6352 17.4563 18.1795 17.645C17.7239 17.8337 17.2225 17.8831 16.7388 17.7869C16.2551 17.6907 15.8108 17.4532 15.462 17.1045C15.1133 16.7557 14.8758 16.3114 14.7796 15.8277C14.6834 15.344 14.7328 14.8426 14.9215 14.387C15.1102 13.9313 15.4298 13.5419 15.8399 13.2679C16.25 12.9939 16.7321 12.8477 17.2253 12.8477C17.8866 12.8477 18.5209 13.1104 18.9885 13.578C19.4561 14.0456 19.7189 14.6799 19.7189 15.3412Z" fill="#58595B"/>
<path d="M33.5585 20.4081C30.6857 22.432 27.4194 23.9675 22.7856 23.9675C20.6166 23.9675 20.1771 21.6693 18.7435 22.7925C18.0038 23.3757 15.3953 24.6799 13.3254 24.5808C11.2556 24.4817 7.90018 23.268 6.96508 18.8496C6.59449 23.268 6.40489 26.5228 4.74585 30.2532C8.04956 35.5434 15.9268 39.6242 23.0771 37.8661C22.3087 32.5011 26.9971 27.2468 29.6386 24.5579C30.6441 23.5394 32.5545 21.8775 33.5585 20.4052V20.4081Z" fill="#8BC53F"/>
<path d="M33.4466 20.5406C32.5546 21.3536 31.4931 21.9555 30.413 22.4869C29.3196 23.0061 28.1799 23.4211 27.0087 23.7265C25.8366 24.0296 24.6142 24.258 23.3761 24.146C22.1379 24.0339 20.8724 23.6131 20.0522 22.6852L20.091 22.6406C21.0965 23.2928 22.2571 23.5226 23.412 23.5556C24.5826 23.5912 25.7534 23.4949 26.9024 23.2683C28.0631 23.0254 29.1985 22.6743 30.2938 22.2198C31.3897 21.7673 32.4742 21.243 33.4079 20.4961L33.4466 20.5406Z" fill="#58595B"/>
</g>
<defs>
<clipPath id="clip0_874_35815">
<rect width="150" height="39.6503" fill="white"/>
</clipPath>
</defs>
</svg>
