<svg width="18" height="18" viewBox="0 0 18 18" fill="none" xmlns="http://www.w3.org/2000/svg">
<path d="M13.3563 3.3525C13.2963 3.3525 13.2363 3.3375 13.1838 3.3075C11.7438 2.565 10.4988 2.25 9.00633 2.25C7.52133 2.25 6.11133 2.6025 4.82883 3.3075C4.64883 3.405 4.42383 3.3375 4.31883 3.1575C4.27206 3.06978 4.26157 2.96722 4.28962 2.87185C4.31767 2.77648 4.38202 2.69592 4.46883 2.6475C5.86383 1.89 7.39383 1.5 9.00633 1.5C10.6038 1.5 11.9988 1.8525 13.5288 2.64C13.7163 2.7375 13.7838 2.9625 13.6863 3.1425C13.6567 3.20502 13.61 3.2579 13.5516 3.29505C13.4932 3.3322 13.4255 3.35212 13.3563 3.3525ZM2.62383 7.29C2.5547 7.29064 2.48674 7.27213 2.42749 7.2365C2.36824 7.20087 2.32001 7.14953 2.28817 7.08816C2.25632 7.0268 2.24209 6.95781 2.24706 6.88885C2.25203 6.81989 2.27601 6.75366 2.31633 6.6975C3.05883 5.6475 4.00383 4.8225 5.12883 4.245C7.48383 3.03 10.4988 3.0225 12.8613 4.2375C13.9863 4.815 14.9313 5.6325 15.6738 6.675C15.7026 6.71531 15.7231 6.76091 15.7342 6.80919C15.7452 6.85746 15.7466 6.90744 15.7382 6.95626C15.7299 7.00507 15.7119 7.05174 15.6854 7.09357C15.6589 7.13541 15.6244 7.17158 15.5838 7.2C15.4113 7.32 15.1788 7.2825 15.0588 7.11C14.402 6.18028 13.5296 5.42367 12.5163 4.905C10.3638 3.8025 7.61133 3.8025 5.46633 4.9125C4.44633 5.4375 3.59133 6.1875 2.91633 7.1325C2.85633 7.2375 2.74383 7.29 2.62383 7.29ZM7.31133 16.3425C7.26215 16.3431 7.21339 16.3334 7.16818 16.314C7.12297 16.2947 7.08232 16.266 7.04883 16.23C6.39633 15.5775 6.04383 15.1575 5.54133 14.25C5.02383 13.3275 4.75383 12.2025 4.75383 10.995C4.75383 8.7675 6.65883 6.9525 8.99883 6.9525C11.3388 6.9525 13.2438 8.7675 13.2438 10.995C13.2438 11.205 13.0788 11.37 12.8688 11.37C12.6588 11.37 12.4938 11.205 12.4938 10.995C12.4938 9.18 10.9263 7.7025 8.99883 7.7025C7.07133 7.7025 5.50383 9.18 5.50383 10.995C5.50383 12.075 5.74383 13.0725 6.20133 13.8825C6.68133 14.745 7.01133 15.1125 7.58883 15.6975C7.73133 15.8475 7.73133 16.08 7.58883 16.23C7.50633 16.305 7.40883 16.3425 7.31133 16.3425ZM12.6888 14.955C11.7963 14.955 11.0088 14.73 10.3638 14.2875C9.24633 13.53 8.57883 12.3 8.57883 10.995C8.57883 10.785 8.74383 10.62 8.95383 10.62C9.16383 10.62 9.32883 10.785 9.32883 10.995C9.32883 12.0525 9.86883 13.05 10.7838 13.665C11.3163 14.025 11.9388 14.1975 12.6888 14.1975C12.8688 14.1975 13.1688 14.175 13.4688 14.1225C13.6713 14.085 13.8663 14.22 13.9038 14.43C13.9413 14.6325 13.8063 14.8275 13.5963 14.865C13.1688 14.9475 12.7938 14.955 12.6888 14.955ZM11.1813 16.5C11.1513 16.5 11.1138 16.4925 11.0838 16.485C9.89133 16.155 9.11133 15.7125 8.29383 14.91C7.77579 14.3985 7.36502 13.7888 7.08556 13.1165C6.8061 12.4443 6.66358 11.723 6.66633 10.995C6.66633 9.78 7.70133 8.79 8.97633 8.79C10.2513 8.79 11.2863 9.78 11.2863 10.995C11.2863 11.7975 11.9838 12.45 12.8463 12.45C13.7088 12.45 14.4063 11.7975 14.4063 10.995C14.4063 8.1675 11.9688 5.8725 8.96883 5.8725C6.83883 5.8725 4.88883 7.0575 4.01133 8.895C3.71883 9.5025 3.56883 10.215 3.56883 10.995C3.56883 11.58 3.62133 12.5025 4.07133 13.7025C4.14633 13.8975 4.04883 14.115 3.85383 14.1825C3.65883 14.2575 3.44133 14.1525 3.37383 13.965C3.01244 13.0165 2.82691 12.01 2.82633 10.995C2.82633 10.095 2.99883 9.2775 3.33633 8.565C4.33383 6.4725 6.54633 5.115 8.96883 5.115C12.3813 5.115 15.1563 7.7475 15.1563 10.9875C15.1563 12.2025 14.1213 13.1925 12.8463 13.1925C11.5713 13.1925 10.5363 12.2025 10.5363 10.9875C10.5363 10.185 9.83883 9.5325 8.97633 9.5325C8.11383 9.5325 7.41633 10.185 7.41633 10.9875C7.41633 12.27 7.91133 13.47 8.81883 14.37C9.53133 15.075 10.2138 15.465 11.2713 15.7575C11.4738 15.81 11.5863 16.02 11.5338 16.215C11.4963 16.3875 11.3388 16.5 11.1813 16.5Z" fill="#A2A5AB"/>
</svg>
