<svg width="16" height="15" viewBox="0 0 16 15" fill="none" xmlns="http://www.w3.org/2000/svg">
<path d="M15.5978 7.32214L9.23016 0.957763L8.80334 0.530944C8.70609 0.434336 8.57458 0.380116 8.4375 0.380116C8.30042 0.380116 8.1689 0.434336 8.07165 0.530944L1.27716 7.32214C1.17751 7.4214 1.09876 7.53962 1.04554 7.66982C0.992333 7.80002 0.965744 7.93956 0.967346 8.0802C0.973938 8.66028 1.45679 9.12335 2.03686 9.12335H2.73724V14.4907H14.1378V9.12335H14.853C15.1348 9.12335 15.4001 9.01294 15.5995 8.81354C15.6977 8.71567 15.7755 8.59929 15.8284 8.47115C15.8813 8.34301 15.9082 8.20565 15.9077 8.06702C15.9077 7.78686 15.7972 7.52154 15.5978 7.32214V7.32214ZM9.36035 13.3042H7.51465V9.94238H9.36035V13.3042ZM12.9512 7.93683V13.3042H10.415V9.54687C10.415 9.18268 10.1201 8.88769 9.75586 8.88769H7.11914C6.75494 8.88769 6.45996 9.18268 6.45996 9.54687V13.3042H3.92377V7.93683H2.34174L8.43915 1.84436L8.81982 2.22504L14.5349 7.93683H12.9512Z" fill="currentColor"/>
</svg>
