<svg width="12" height="12" viewBox="0 0 12 12" fill="none" xmlns="http://www.w3.org/2000/svg">
<path d="M5 3.5C4.9999 4.19532 5.2069 4.87491 5.59461 5.45211C5.98232 6.0293 6.53317 6.47793 7.17689 6.74078C7.82061 7.00364 8.52804 7.0688 9.20894 6.92796C9.88985 6.78712 10.5134 6.44666 11 5.95V6C11 8.7615 8.7615 11 6 11C3.2385 11 1 8.7615 1 6C1 3.2385 3.2385 1 6 1H6.05C5.71702 1.32556 5.45257 1.71448 5.27224 2.14384C5.09191 2.5732 4.99934 3.03431 5 3.5V3.5ZM2 6C1.99964 6.89249 2.29776 7.75946 2.84695 8.46298C3.39613 9.1665 4.16482 9.66614 5.03071 9.88241C5.8966 10.0987 6.80994 10.0192 7.62542 9.65649C8.4409 9.29382 9.11167 8.66885 9.531 7.881C8.78472 8.05682 8.00589 8.03904 7.26841 7.82936C6.53093 7.61968 5.85925 7.22504 5.31711 6.68289C4.77496 6.14075 4.38032 5.46907 4.17064 4.73159C3.96096 3.99411 3.94318 3.21528 4.119 2.469C3.47879 2.81007 2.94339 3.31883 2.57013 3.94082C2.19686 4.56281 1.99979 5.27461 2 6V6Z" fill="currentColor"/>
</svg>
