<svg width="13" height="12" viewBox="0 0 13 12" fill="none" xmlns="http://www.w3.org/2000/svg">
<path d="M6.36377 9C5.56812 9 4.80506 8.68393 4.24245 8.12132C3.67984 7.55871 3.36377 6.79565 3.36377 6C3.36377 5.20435 3.67984 4.44129 4.24245 3.87868C4.80506 3.31607 5.56812 3 6.36377 3C7.15942 3 7.92248 3.31607 8.48509 3.87868C9.0477 4.44129 9.36377 5.20435 9.36377 6C9.36377 6.79565 9.0477 7.55871 8.48509 8.12132C7.92248 8.68393 7.15942 9 6.36377 9ZM6.36377 8C6.8942 8 7.40291 7.78929 7.77798 7.41421C8.15306 7.03914 8.36377 6.53043 8.36377 6C8.36377 5.46957 8.15306 4.96086 7.77798 4.58579C7.40291 4.21071 6.8942 4 6.36377 4C5.83334 4 5.32463 4.21071 4.94956 4.58579C4.57448 4.96086 4.36377 5.46957 4.36377 6C4.36377 6.53043 4.57448 7.03914 4.94956 7.41421C5.32463 7.78929 5.83334 8 6.36377 8V8ZM5.86377 0.5H6.86377V2H5.86377V0.5ZM5.86377 10H6.86377V11.5H5.86377V10ZM2.12127 2.4645L2.82827 1.7575L3.88877 2.818L3.18177 3.525L2.12127 2.465V2.4645ZM8.83877 9.182L9.54577 8.475L10.6063 9.5355L9.89927 10.2425L8.83877 9.182ZM9.89927 1.757L10.6063 2.4645L9.54577 3.525L8.83877 2.818L9.89927 1.7575V1.757ZM3.18177 8.475L3.88877 9.182L2.82827 10.2425L2.12127 9.5355L3.18177 8.475V8.475ZM11.8638 5.5V6.5H10.3638V5.5H11.8638ZM2.36377 5.5V6.5H0.86377V5.5H2.36377Z" fill="currentColor"/>
</svg>
