<svg width="29" height="29" viewBox="0 0 29 29" fill="none" xmlns="http://www.w3.org/2000/svg">
<path fill-rule="evenodd" clip-rule="evenodd" d="M4.63867 7.60003C4.63867 7.23403 4.78406 6.88302 5.04286 6.62422C5.30166 6.36542 5.65267 6.22003 6.01867 6.22003H22.5787C22.9447 6.22003 23.2957 6.36542 23.5545 6.62422C23.8133 6.88302 23.9587 7.23403 23.9587 7.60003C23.9587 7.96603 23.8133 8.31704 23.5545 8.57584C23.2957 8.83464 22.9447 8.98003 22.5787 8.98003H6.01867C5.65267 8.98003 5.30166 8.83464 5.04286 8.57584C4.78406 8.31704 4.63867 7.96603 4.63867 7.60003ZM4.63867 14.5C4.63867 14.134 4.78406 13.783 5.04286 13.5242C5.30166 13.2654 5.65267 13.12 6.01867 13.12H22.5787C22.9447 13.12 23.2957 13.2654 23.5545 13.5242C23.8133 13.783 23.9587 14.134 23.9587 14.5C23.9587 14.866 23.8133 15.217 23.5545 15.4758C23.2957 15.7346 22.9447 15.88 22.5787 15.88H6.01867C5.65267 15.88 5.30166 15.7346 5.04286 15.4758C4.78406 15.217 4.63867 14.866 4.63867 14.5ZM4.63867 21.4C4.63867 21.034 4.78406 20.683 5.04286 20.4242C5.30166 20.1654 5.65267 20.02 6.01867 20.02H22.5787C22.9447 20.02 23.2957 20.1654 23.5545 20.4242C23.8133 20.683 23.9587 21.034 23.9587 21.4C23.9587 21.766 23.8133 22.117 23.5545 22.3758C23.2957 22.6346 22.9447 22.78 22.5787 22.78H6.01867C5.65267 22.78 5.30166 22.6346 5.04286 22.3758C4.78406 22.117 4.63867 21.766 4.63867 21.4Z" fill="currentColor"/>
</svg>
