<svg width="21" height="20" viewBox="0 0 16 15" fill="none" xmlns="http://www.w3.org/2000/svg">
<path d="M11 2.40622V1.24702C10.9999 1.18997 11.0161 1.13407 11.0466 1.08588C11.0772 1.0377 11.1209 0.999224 11.1725 0.974975C11.2241 0.950727 11.2816 0.941709 11.3382 0.948979C11.3948 0.956249 11.4482 0.979506 11.492 1.01602L13.964 3.07582C14.0114 3.11533 14.0454 3.16847 14.0615 3.22803C14.0776 3.28758 14.0749 3.35064 14.0539 3.40862C14.0328 3.4666 13.9944 3.51668 13.9438 3.55204C13.8933 3.5874 13.8331 3.60632 13.7714 3.60622H2V2.40622H11ZM2 10.8062H14V12.0062H2V10.8062ZM2 6.60622H14V7.80622H2V6.60622Z" fill="currentColor"/>
</svg>
