<svg width="21" height="21" viewBox="0 0 21 21" fill="none" xmlns="http://www.w3.org/2000/svg">
<path fill-rule="evenodd" clip-rule="evenodd" d="M15.093 1.86383C16.1011 2.06928 17.0341 2.54559 17.7917 3.24155C18.5493 3.93751 19.103 4.82681 19.393 5.81383C19.6618 6.71883 19.7018 7.67633 19.5093 8.60133C19.231 9.86863 18.5308 11.0039 17.5233 11.8214C16.5157 12.6389 15.2605 13.0902 13.963 13.1013C13.4155 13.1013 12.8705 13.0226 12.3468 12.8638L11.3468 14.0363L10.873 14.2551H9.6543V16.1301L9.0293 16.7551H7.1543V18.6301L6.5293 19.2551H2.7793L2.1543 18.6301V15.7463L2.3368 15.3051L8.5543 9.08758C8.37785 8.51924 8.29345 7.92633 8.3043 7.33133C8.31569 6.49887 8.51058 5.67918 8.87509 4.93069C9.23959 4.18219 9.76473 3.52332 10.4131 3.00104C11.0614 2.47877 11.817 2.10595 12.6259 1.90916C13.4349 1.71238 14.2773 1.69647 15.093 1.86258V1.86383ZM16.7405 10.8638C17.5258 10.228 18.0718 9.34431 18.2893 8.35758L18.2943 8.36383C18.4492 7.64233 18.4213 6.89357 18.2132 6.18558C18.0052 5.47759 17.6235 4.83282 17.1029 4.30984C16.5822 3.78687 15.9392 3.40227 15.2322 3.191C14.5251 2.97973 13.7765 2.94847 13.0543 3.10008C12.0803 3.31626 11.2066 3.8521 10.5723 4.62228C9.93806 5.39245 9.5797 6.35268 9.5543 7.35008C9.5418 7.92008 9.6418 8.48508 9.85305 9.01258L9.71555 9.69133L3.4043 16.0051V18.0051H5.9043V16.1301L6.5293 15.5051H8.4043V13.6301L9.0293 13.0051H10.5855L11.6805 11.7351L12.3818 11.5601C12.8873 11.7576 13.4253 11.8585 13.968 11.8576C14.9781 11.8498 15.9556 11.4995 16.7405 10.8638ZM15.693 7.44883C15.7916 7.31264 15.8617 7.15797 15.8991 6.99408C15.9365 6.83018 15.9404 6.66042 15.9107 6.49496C15.881 6.3295 15.8182 6.17174 15.7261 6.03111C15.634 5.89048 15.5144 5.76987 15.3746 5.67651C15.2348 5.58314 15.0777 5.51893 14.9125 5.48772C14.7473 5.45651 14.5775 5.45894 14.4133 5.49487C14.249 5.5308 14.0938 5.59948 13.9567 5.69681C13.8196 5.79414 13.7036 5.91812 13.6155 6.06133C13.4462 6.33681 13.3902 6.66722 13.4593 6.98313C13.5284 7.29904 13.7172 7.57587 13.9862 7.75548C14.2551 7.93508 14.5831 8.00348 14.9014 7.9463C15.2197 7.88911 15.5035 7.71081 15.693 7.44883Z" fill="currentColor"/>
</svg>
