<svg width="21" height="21" viewBox="0 0 21 21" fill="none" xmlns="http://www.w3.org/2000/svg">
<path d="M5.90365 3C8.81198 3 11.2228 5.12833 11.6645 7.9125C12.6436 6.93667 13.9953 6.33333 15.487 6.33333H19.237V8.41667C19.237 11.4083 16.812 13.8333 13.8203 13.8333H11.737V18H10.0703V11.3333H8.40365C5.18198 11.3333 2.57031 8.72167 2.57031 5.5V3H5.90365ZM17.5703 8H15.487C13.4161 8 11.737 9.67917 11.737 11.75V12.1667H13.8203C15.8911 12.1667 17.5703 10.4875 17.5703 8.41667V8ZM5.90365 4.66667H4.23698V5.5C4.23698 7.80083 6.10281 9.66667 8.40365 9.66667H10.0703V8.83333C10.0703 6.5325 8.20448 4.66667 5.90365 4.66667Z" fill="currentColor"/>
</svg>
