<svg width="19" height="23" viewBox="0 0 19 23" fill="none" xmlns="http://www.w3.org/2000/svg">
<path d="M9.5 0.958008L17.3746 2.70792C17.8126 2.80567 18.125 3.1938 18.125 3.64326V13.2141C18.125 15.1365 17.1638 16.9325 15.5643 17.9981L9.5 22.0413L3.43567 17.9981C1.83525 16.9315 0.875 15.1365 0.875 13.2151V3.64326C0.875 3.1938 1.18742 2.80567 1.62537 2.70792L9.5 0.958008ZM9.5 2.92163L2.79167 4.41184V13.2141C2.79167 14.4954 3.43183 15.6924 4.49846 16.4035L9.5 19.7385L14.5015 16.4035C15.5682 15.6924 16.2083 14.4964 16.2083 13.2151V4.41184L9.5 2.92259V2.92163ZM13.7665 7.87909L15.1225 9.23417L9.02371 15.333L4.9575 11.2668L6.31258 9.91172L9.02275 12.6219L13.7665 7.87813V7.87909Z" fill="currentColor"/>
</svg>
