<svg width="33" height="33" viewBox="0 0 33 33" fill="none" xmlns="http://www.w3.org/2000/svg">
<path d="M16.5 9.80518C15.6208 9.80518 14.7502 9.97834 13.938 10.3148C13.1257 10.6512 12.3877 11.1444 11.766 11.7661C11.1443 12.3877 10.6512 13.1258 10.3147 13.938C9.97828 14.7503 9.80511 15.6209 9.80511 16.5001C9.80511 17.3792 9.97828 18.2498 10.3147 19.0621C10.6512 19.8743 11.1443 20.6124 11.766 21.234C12.3877 21.8557 13.1257 22.3489 13.938 22.6853C14.7502 23.0218 15.6208 23.1949 16.5 23.1949C18.2756 23.1949 19.9784 22.4896 21.234 21.234C22.4895 19.9785 23.1949 18.2756 23.1949 16.5001C23.1949 14.7245 22.4895 13.0216 21.234 11.7661C19.9784 10.5105 18.2756 9.80518 16.5 9.80518ZM11.8676 16.5001C11.8676 15.2715 12.3557 14.0932 13.2244 13.2245C14.0931 12.3557 15.2714 11.8677 16.5 11.8677C17.7286 11.8677 18.9068 12.3557 19.7756 13.2245C20.6443 14.0932 21.1324 15.2715 21.1324 16.5001C21.1324 17.7286 20.6443 18.9069 19.7756 19.7756C18.9068 20.6444 17.7286 21.1324 16.5 21.1324C15.2714 21.1324 14.0931 20.6444 13.2244 19.7756C12.3557 18.9069 11.8676 17.7286 11.8676 16.5001Z" fill="currentColor"/>
<path d="M20.2037 2.76939C19.1168 -0.92248 13.8821 -0.92248 12.7952 2.76939L12.6013 3.42733C12.5254 3.68505 12.3928 3.92251 12.2132 4.12231C12.0336 4.32211 11.8116 4.47919 11.5634 4.58203C11.3152 4.68487 11.0471 4.73086 10.7788 4.71664C10.5105 4.70241 10.2488 4.62834 10.0129 4.49983L9.41064 4.16983C6.02814 2.33008 2.33008 6.03021 4.17189 9.41064L4.49983 10.0129C4.62834 10.2488 4.70241 10.5105 4.71664 10.7788C4.73086 11.0471 4.68487 11.3152 4.58203 11.5634C4.47919 11.8116 4.32211 12.0336 4.12231 12.2132C3.92251 12.3928 3.68505 12.5254 3.42733 12.6013L2.76939 12.7952C-0.92248 13.8821 -0.92248 19.1168 2.76939 20.2037L3.42733 20.3976C3.68505 20.4735 3.92251 20.6061 4.12231 20.7857C4.32211 20.9653 4.47919 21.1874 4.58203 21.4356C4.68487 21.6838 4.73086 21.9518 4.71664 22.2201C4.70241 22.4884 4.62834 22.7501 4.49983 22.986L4.16983 23.5883C2.33008 26.9708 6.02814 30.6709 9.41064 28.827L10.0129 28.4991C10.2488 28.3706 10.5105 28.2965 10.7788 28.2823C11.0471 28.2681 11.3152 28.314 11.5634 28.4169C11.8116 28.5197 12.0336 28.6768 12.2132 28.8766C12.3928 29.0764 12.5254 29.3139 12.6013 29.5716L12.7952 30.2295C13.8821 33.9214 19.1168 33.9214 20.2037 30.2295L20.3976 29.5716C20.4735 29.3139 20.6061 29.0764 20.7857 28.8766C20.9653 28.6768 21.1874 28.5197 21.4356 28.4169C21.6838 28.314 21.9518 28.2681 22.2201 28.2823C22.4884 28.2965 22.7501 28.3706 22.986 28.4991L23.5883 28.8291C26.9708 30.6709 30.6709 26.9687 28.827 23.5883L28.4991 22.986C28.3706 22.7501 28.2965 22.4884 28.2823 22.2201C28.2681 21.9518 28.314 21.6838 28.4169 21.4356C28.5197 21.1874 28.6768 20.9653 28.8766 20.7857C29.0764 20.6061 29.3139 20.4735 29.5716 20.3976L30.2295 20.2037C33.9214 19.1168 33.9214 13.8821 30.2295 12.7952L29.5716 12.6013C29.3139 12.5254 29.0764 12.3928 28.8766 12.2132C28.6768 12.0336 28.5197 11.8116 28.4169 11.5634C28.314 11.3152 28.2681 11.0471 28.2823 10.7788C28.2965 10.5105 28.3706 10.2488 28.4991 10.0129L28.8291 9.41064C30.6709 6.02814 26.9687 2.33008 23.5883 4.17189L22.986 4.49983C22.7501 4.62834 22.4884 4.70241 22.2201 4.71664C21.9518 4.73086 21.6838 4.68487 21.4356 4.58203C21.1874 4.47919 20.9653 4.32211 20.7857 4.12231C20.6061 3.92251 20.4735 3.68505 20.3976 3.42733L20.2037 2.76939ZM14.7731 3.35308C15.2805 1.63089 17.7184 1.63089 18.2258 3.35308L18.4196 4.01102C18.5826 4.56395 18.8673 5.07339 19.2527 5.502C19.6382 5.93061 20.1147 6.26752 20.6473 6.48804C21.1799 6.70856 21.7551 6.80708 22.3307 6.7764C22.9064 6.74571 23.4678 6.58659 23.974 6.31071L24.5741 5.98071C26.1499 5.12477 27.8741 6.84696 27.0161 8.42477L26.6882 9.02702C26.4127 9.53321 26.254 10.0946 26.2237 10.6701C26.1933 11.2456 26.2921 11.8206 26.5128 12.353C26.7335 12.8853 27.0705 13.3616 27.4991 13.7468C27.9278 14.132 28.4371 14.4165 28.99 14.5793L29.6458 14.7731C31.368 15.2805 31.368 17.7184 29.6458 18.2258L28.9879 18.4196C28.435 18.5826 27.9255 18.8673 27.4969 19.2527C27.0683 19.6382 26.7314 20.1147 26.5109 20.6473C26.2904 21.1799 26.1918 21.7551 26.2225 22.3307C26.2532 22.9064 26.4123 23.4678 26.6882 23.974L27.0182 24.5741C27.8741 26.1499 26.152 27.8741 24.5741 27.0161L23.974 26.6882C23.4677 26.4123 22.9061 26.2533 22.3303 26.2228C21.7546 26.1922 21.1793 26.2909 20.6467 26.5116C20.1141 26.7324 19.6376 27.0695 19.2522 27.4983C18.8669 27.9272 18.5824 28.4369 18.4196 28.99L18.2258 29.6458C17.7184 31.368 15.2805 31.368 14.7731 29.6458L14.5793 28.9879C14.4162 28.4353 14.1316 27.9261 13.7463 27.4977C13.361 27.0693 12.8847 26.7325 12.3524 26.512C11.82 26.2915 11.2451 26.1929 10.6697 26.2234C10.0944 26.2539 9.53308 26.4127 9.02702 26.6882L8.42477 27.0182C6.84902 27.8741 5.12477 26.152 5.98277 24.5741L6.31071 23.974C6.58698 23.4677 6.74641 22.9061 6.7773 22.3302C6.80819 21.7543 6.70975 21.1789 6.4892 20.646C6.26866 20.1131 5.93161 19.6364 5.50278 19.2508C5.07395 18.8652 4.56423 18.5805 4.01102 18.4176L3.35308 18.2237C1.63089 17.7163 1.63089 15.2785 3.35308 14.7711L4.01102 14.5772C4.56337 14.4141 5.07226 14.1295 5.50044 13.7443C5.92862 13.3592 6.26526 12.8831 6.48572 12.3511C6.70618 11.819 6.80488 11.2444 6.7746 10.6692C6.74432 10.0941 6.58582 9.533 6.31071 9.02702L5.98071 8.42477C5.12477 6.84902 6.84696 5.12477 8.42477 5.98277L9.02702 6.31071C9.53308 6.58621 10.0944 6.74501 10.6697 6.7755C11.2451 6.80598 11.82 6.70737 12.3524 6.48688C12.8847 6.26639 13.361 5.92962 13.7463 5.50122C14.1316 5.07282 14.4162 4.56366 14.5793 4.01102L14.7731 3.35308Z" fill="currentColor"/>
</svg>
