<svg width="23" height="23" viewBox="0 0 23 23" fill="none" xmlns="http://www.w3.org/2000/svg">
<path d="M11.5 0.958008L19.3746 2.70792C19.8126 2.80567 20.125 3.1938 20.125 3.64326V13.2141C20.125 15.1365 19.1638 16.9325 17.5643 17.9981L11.5 22.0413L5.43567 17.9981C3.83525 16.9315 2.875 15.1365 2.875 13.2151V3.64326C2.875 3.1938 3.18742 2.80567 3.62537 2.70792L11.5 0.958008ZM11.5 2.92163L4.79167 4.41184V13.2141C4.79167 14.4954 5.43183 15.6924 6.49846 16.4035L11.5 19.7385L16.5015 16.4035C17.5682 15.6924 18.2083 14.4964 18.2083 13.2151V4.41184L11.5 2.92259V2.92163ZM15.7665 7.87909L17.1225 9.23417L11.0237 15.333L6.9575 11.2668L8.31258 9.91172L11.0227 12.6219L15.7665 7.87813V7.87909Z" fill="currentColor"/>
</svg>
