<svg width="21" height="24" viewBox="0 0 21 24" fill="none" xmlns="http://www.w3.org/2000/svg">
    <g clip-path="url(#clip0_49_135150)">
    <path d="M2.92857 3.66078C2.52589 3.66078 2.19643 3.99025 2.19643 4.39293V19.0358C2.19643 19.4385 2.52589 19.7679 2.92857 19.7679H13.1786V16.1072C13.1786 15.2973 13.8329 14.6429 14.6429 14.6429H18.3036V4.39293C18.3036 3.99025 17.9741 3.66078 17.5714 3.66078H2.92857ZM13.1786 21.9644H2.92857C1.31328 21.9644 0 20.6511 0 19.0358V4.39293C0 2.77764 1.31328 1.46436 2.92857 1.46436H17.5714C19.1867 1.46436 20.5 2.77764 20.5 4.39293V14.6429V14.8946C20.5 15.6725 20.1934 16.4184 19.6443 16.9675L15.5031 21.1087C14.954 21.6578 14.2081 21.9644 13.4302 21.9644H13.1786Z" fill="#dadd"/>
    </g>
    <defs>
    <clipPath id="clip0_49_135150">
    <rect width="20.5" height="23.4286" fill="black"/>
    </clipPath>
    </defs>
</svg>
