<svg width="23" height="23" viewBox="0 0 23 23" fill="none" xmlns="http://www.w3.org/2000/svg">
<path fill-rule="evenodd" clip-rule="evenodd" d="M1.91669 5.75033C1.91669 5.22105 2.34575 4.79199 2.87502 4.79199H20.125C20.6543 4.79199 21.0834 5.22105 21.0834 5.75033C21.0834 6.2796 20.6543 6.70866 20.125 6.70866H2.87502C2.34575 6.70866 1.91669 6.2796 1.91669 5.75033Z" fill="currentColor"/>
<path fill-rule="evenodd" clip-rule="evenodd" d="M9.58331 2.87467C9.32915 2.87467 9.08539 2.97564 8.90567 3.15536C8.72595 3.33509 8.62498 3.57884 8.62498 3.83301V4.79134H14.375V3.83301C14.375 3.57884 14.274 3.33509 14.0943 3.15536C13.9146 2.97564 13.6708 2.87467 13.4166 2.87467H9.58331ZM16.2916 4.79134V3.83301C16.2916 3.07051 15.9887 2.33924 15.4496 1.80008C14.9104 1.26091 14.1791 0.958008 13.4166 0.958008H9.58331C8.82082 0.958008 8.08955 1.26091 7.55038 1.80008C7.01121 2.33924 6.70831 3.07051 6.70831 3.83301V4.79134H4.79165C4.26237 4.79134 3.83331 5.2204 3.83331 5.74967V19.1663C3.83331 19.9288 4.13621 20.6601 4.67538 21.1993C5.21455 21.7384 5.94582 22.0413 6.70831 22.0413H16.2916C17.0541 22.0413 17.7854 21.7384 18.3246 21.1993C18.8637 20.6601 19.1666 19.9288 19.1666 19.1663V5.74967C19.1666 5.2204 18.7376 4.79134 18.2083 4.79134H16.2916ZM5.74998 6.70801V19.1663C5.74998 19.4205 5.85095 19.6643 6.03067 19.844C6.21039 20.0237 6.45415 20.1247 6.70831 20.1247H16.2916C16.5458 20.1247 16.7896 20.0237 16.9693 19.844C17.149 19.6643 17.25 19.4205 17.25 19.1663V6.70801H5.74998Z" fill="currentColor"/>
<path fill-rule="evenodd" clip-rule="evenodd" d="M9.58333 9.58301C10.1126 9.58301 10.5417 10.0121 10.5417 10.5413V16.2913C10.5417 16.8206 10.1126 17.2497 9.58333 17.2497C9.05406 17.2497 8.625 16.8206 8.625 16.2913V10.5413C8.625 10.0121 9.05406 9.58301 9.58333 9.58301Z" fill="currentColor"/>
<path fill-rule="evenodd" clip-rule="evenodd" d="M13.4166 9.58301C13.9459 9.58301 14.375 10.0121 14.375 10.5413V16.2913C14.375 16.8206 13.9459 17.2497 13.4166 17.2497C12.8874 17.2497 12.4583 16.8206 12.4583 16.2913V10.5413C12.4583 10.0121 12.8874 9.58301 13.4166 9.58301Z" fill="currentColor"/>
</svg>
