<svg width="24" height="22" viewBox="0 0 24 22" fill="none" xmlns="http://www.w3.org/2000/svg">
<path d="M21.3334 0.5H3.83337C1.90371 0.5 0.333374 2.07033 0.333374 4V18C0.333374 19.9297 1.90371 21.5 3.83337 21.5H21.3334C22.6202 21.5 23.6667 20.4535 23.6667 19.1667V2.83333C23.6667 1.5465 22.6202 0.5 21.3334 0.5ZM3.83337 19.1667C3.18937 19.1667 2.66671 18.6428 2.66671 18V4C2.66671 3.35717 3.18937 2.83333 3.83337 2.83333H21.3334V6.33333H14.3334C13.0465 6.33333 12 7.37983 12 8.66667V13.3333C12 14.6202 13.0465 15.6667 14.3334 15.6667H21.3345V19.1667H3.83337ZM21.3334 8.66667V13.3333H14.3334V8.66667H21.3334Z" fill="currentColor"/>
</svg>
