<svg width="21" height="21" viewBox="0 0 21 21" fill="none" xmlns="http://www.w3.org/2000/svg">
<path d="M15.9036 6.33333H18.4036C18.6247 6.33333 18.8366 6.42113 18.9929 6.57741C19.1492 6.73369 19.237 6.94565 19.237 7.16667V17.1667C19.237 17.3877 19.1492 17.5996 18.9929 17.7559C18.8366 17.9122 18.6247 18 18.4036 18H3.40365C3.18263 18 2.97067 17.9122 2.81439 17.7559C2.65811 17.5996 2.57031 17.3877 2.57031 17.1667V3.83333C2.57031 3.61232 2.65811 3.40036 2.81439 3.24408C2.97067 3.0878 3.18263 3 3.40365 3H15.9036V6.33333ZM4.23698 8V16.3333H17.5703V8H4.23698ZM4.23698 4.66667V6.33333H14.237V4.66667H4.23698ZM13.4036 11.3333H15.9036V13H13.4036V11.3333Z" fill="currentColor"/>
</svg>
